<mxfile host="Electron" modified="2024-04-30T13:12:39.396Z" agent="Mozilla/5.0 (X11; Linux x86_64) AppleWebKit/537.36 (KHTML, like Gecko) draw.io/24.2.5 Chrome/120.0.6099.109 Electron/28.1.0 Safari/537.36" etag="rCnln7oQFgEzszvLERRx" version="24.2.5" type="device">
  <diagram id="R2lEEEUBdFMjLlhIrx00" name="Page-1">
    <mxGraphModel dx="1305" dy="1929" grid="1" gridSize="10" guides="1" tooltips="1" connect="1" arrows="1" fold="1" page="1" pageScale="1" pageWidth="850" pageHeight="1100" math="0" shadow="0" extFonts="Permanent Marker^https://fonts.googleapis.com/css?family=Permanent+Marker">
      <root>
        <mxCell id="0" />
        <mxCell id="1" parent="0" />
        <mxCell id="BqI_jp8ccUt9a7TALAK3-115" style="edgeStyle=orthogonalEdgeStyle;rounded=0;orthogonalLoop=1;jettySize=auto;html=1;exitX=0.5;exitY=0;exitDx=0;exitDy=0;" edge="1" parent="1" source="svqljPXg2CXVWNn9yPOQ-34">
          <mxGeometry relative="1" as="geometry">
            <mxPoint x="944.9411764705883" y="-430" as="targetPoint" />
          </mxGeometry>
        </mxCell>
        <mxCell id="svqljPXg2CXVWNn9yPOQ-34" value="&lt;h1&gt;1. Users Table:&lt;/h1&gt;" style="swimlane;whiteSpace=wrap;html=1;fillColor=#f8cecc;strokeColor=#b85450;rotation=0;" parent="1" vertex="1">
          <mxGeometry x="850" y="-430" width="190" height="320" as="geometry" />
        </mxCell>
        <mxCell id="svqljPXg2CXVWNn9yPOQ-35" value="Username (VARCHAR)" style="text;html=1;align=center;verticalAlign=middle;resizable=0;points=[];autosize=1;strokeColor=none;fillColor=none;fontStyle=1;fontSize=14;rotation=0;" parent="svqljPXg2CXVWNn9yPOQ-34" vertex="1">
          <mxGeometry x="15" y="90" width="170" height="30" as="geometry" />
        </mxCell>
        <mxCell id="svqljPXg2CXVWNn9yPOQ-38" value="Password (VARCHAR)" style="text;html=1;align=center;verticalAlign=middle;resizable=0;points=[];autosize=1;strokeColor=none;fillColor=none;fontStyle=1;fontSize=14;rotation=0;" parent="svqljPXg2CXVWNn9yPOQ-34" vertex="1">
          <mxGeometry x="20" y="120" width="170" height="30" as="geometry" />
        </mxCell>
        <mxCell id="svqljPXg2CXVWNn9yPOQ-39" value="Email (VARCHAR)" style="text;html=1;align=center;verticalAlign=middle;resizable=0;points=[];autosize=1;strokeColor=none;fillColor=none;fontStyle=1;fontSize=14;rotation=0;" parent="svqljPXg2CXVWNn9yPOQ-34" vertex="1">
          <mxGeometry x="35" y="160" width="140" height="30" as="geometry" />
        </mxCell>
        <mxCell id="svqljPXg2CXVWNn9yPOQ-41" value="&lt;span style=&quot;font-size: 14px;&quot;&gt;&lt;b&gt;Phone (VARCHAR)&lt;/b&gt;&lt;/span&gt;" style="text;html=1;align=center;verticalAlign=middle;resizable=0;points=[];autosize=1;strokeColor=none;fillColor=none;rotation=0;" parent="svqljPXg2CXVWNn9yPOQ-34" vertex="1">
          <mxGeometry x="35" y="190" width="150" height="30" as="geometry" />
        </mxCell>
        <mxCell id="svqljPXg2CXVWNn9yPOQ-44" value="&lt;span style=&quot;font-size: 14px;&quot;&gt;&lt;b&gt;Address (VARCHAR)&lt;/b&gt;&lt;/span&gt;" style="text;html=1;align=center;verticalAlign=middle;resizable=0;points=[];autosize=1;strokeColor=none;fillColor=none;" parent="svqljPXg2CXVWNn9yPOQ-34" vertex="1">
          <mxGeometry x="25" y="220" width="160" height="30" as="geometry" />
        </mxCell>
        <mxCell id="BqI_jp8ccUt9a7TALAK3-98" value="UserID(INT,Primary key)" style="text;html=1;align=center;verticalAlign=middle;resizable=0;points=[];autosize=1;strokeColor=none;fillColor=none;fontStyle=1;fontSize=14;rotation=0;" vertex="1" parent="svqljPXg2CXVWNn9yPOQ-34">
          <mxGeometry x="10" y="40" width="180" height="30" as="geometry" />
        </mxCell>
        <mxCell id="svqljPXg2CXVWNn9yPOQ-55" value="&lt;h1&gt;2. Bus Operators Table:&lt;/h1&gt;" style="swimlane;whiteSpace=wrap;html=1;fillColor=#f8cecc;strokeColor=#b85450;rotation=0;" parent="1" vertex="1">
          <mxGeometry x="470" y="930" width="290" height="170" as="geometry" />
        </mxCell>
        <mxCell id="svqljPXg2CXVWNn9yPOQ-56" value="OperatorID (INT, Primary Key)" style="text;html=1;align=center;verticalAlign=middle;resizable=0;points=[];autosize=1;strokeColor=none;fillColor=none;fontStyle=1;fontSize=14;rotation=0;" parent="svqljPXg2CXVWNn9yPOQ-55" vertex="1">
          <mxGeometry x="40" y="30" width="210" height="30" as="geometry" />
        </mxCell>
        <mxCell id="svqljPXg2CXVWNn9yPOQ-57" value="OperatorName (VARCHAR)" style="text;html=1;align=center;verticalAlign=middle;resizable=0;points=[];autosize=1;strokeColor=none;fillColor=none;fontStyle=1;fontSize=14;rotation=0;" parent="svqljPXg2CXVWNn9yPOQ-55" vertex="1">
          <mxGeometry x="50" y="60" width="200" height="30" as="geometry" />
        </mxCell>
        <mxCell id="svqljPXg2CXVWNn9yPOQ-58" value="ContactPerson (VARCHAR)" style="text;html=1;align=center;verticalAlign=middle;resizable=0;points=[];autosize=1;strokeColor=none;fillColor=none;fontStyle=1;fontSize=14;rotation=0;" parent="svqljPXg2CXVWNn9yPOQ-55" vertex="1">
          <mxGeometry x="40" y="85" width="200" height="30" as="geometry" />
        </mxCell>
        <mxCell id="svqljPXg2CXVWNn9yPOQ-59" value="&lt;span style=&quot;font-size: 14px;&quot;&gt;&lt;b&gt;Email (VARCHAR)&lt;/b&gt;&lt;/span&gt;" style="text;html=1;align=center;verticalAlign=middle;resizable=0;points=[];autosize=1;strokeColor=none;fillColor=none;rotation=0;" parent="svqljPXg2CXVWNn9yPOQ-55" vertex="1">
          <mxGeometry x="80" y="115" width="140" height="30" as="geometry" />
        </mxCell>
        <mxCell id="svqljPXg2CXVWNn9yPOQ-60" value="&lt;span style=&quot;font-size: 14px;&quot;&gt;&lt;b&gt;Phone (VARCHAR)&lt;/b&gt;&lt;/span&gt;" style="text;html=1;align=center;verticalAlign=middle;resizable=0;points=[];autosize=1;strokeColor=none;fillColor=none;" parent="svqljPXg2CXVWNn9yPOQ-55" vertex="1">
          <mxGeometry x="65" y="140" width="150" height="30" as="geometry" />
        </mxCell>
        <mxCell id="svqljPXg2CXVWNn9yPOQ-67" value="&lt;h1&gt;3. Bus Types Table:&lt;/h1&gt;" style="swimlane;whiteSpace=wrap;html=1;fillColor=#f8cecc;strokeColor=#b85450;rotation=0;" parent="1" vertex="1">
          <mxGeometry x="1890" y="720" width="260" height="120" as="geometry" />
        </mxCell>
        <mxCell id="svqljPXg2CXVWNn9yPOQ-68" value="TypeID (INT, Primary Key)" style="text;html=1;align=center;verticalAlign=middle;resizable=0;points=[];autosize=1;strokeColor=none;fillColor=none;fontStyle=1;fontSize=14;rotation=0;" parent="svqljPXg2CXVWNn9yPOQ-67" vertex="1">
          <mxGeometry x="45" y="30" width="190" height="30" as="geometry" />
        </mxCell>
        <mxCell id="svqljPXg2CXVWNn9yPOQ-69" value="TypeName (VARCHAR)" style="text;html=1;align=center;verticalAlign=middle;resizable=0;points=[];autosize=1;strokeColor=none;fillColor=none;fontStyle=1;fontSize=14;rotation=0;" parent="svqljPXg2CXVWNn9yPOQ-67" vertex="1">
          <mxGeometry x="60" y="60" width="170" height="30" as="geometry" />
        </mxCell>
        <mxCell id="svqljPXg2CXVWNn9yPOQ-70" value="Description (TEXT)" style="text;html=1;align=center;verticalAlign=middle;resizable=0;points=[];autosize=1;strokeColor=none;fillColor=none;fontStyle=1;fontSize=14;rotation=0;" parent="svqljPXg2CXVWNn9yPOQ-67" vertex="1">
          <mxGeometry x="70" y="90" width="140" height="30" as="geometry" />
        </mxCell>
        <mxCell id="svqljPXg2CXVWNn9yPOQ-75" value="&lt;h1&gt;4. Buses Table:&lt;/h1&gt;" style="swimlane;whiteSpace=wrap;html=1;fillColor=#f8cecc;strokeColor=#b85450;rotation=0;" parent="1" vertex="1">
          <mxGeometry x="1185" y="910" width="440" height="240" as="geometry" />
        </mxCell>
        <mxCell id="svqljPXg2CXVWNn9yPOQ-76" value="BusID (INT, Primary Key)" style="text;html=1;align=center;verticalAlign=middle;resizable=0;points=[];autosize=1;strokeColor=none;fillColor=none;fontStyle=1;fontSize=14;rotation=0;" parent="svqljPXg2CXVWNn9yPOQ-75" vertex="1">
          <mxGeometry x="130" y="30" width="180" height="30" as="geometry" />
        </mxCell>
        <mxCell id="svqljPXg2CXVWNn9yPOQ-77" value="OperatorID (INT, Foreign Key referencing Bus Operators Table)" style="text;html=1;align=center;verticalAlign=middle;resizable=0;points=[];autosize=1;strokeColor=none;fillColor=none;fontStyle=1;fontSize=14;rotation=0;" parent="svqljPXg2CXVWNn9yPOQ-75" vertex="1">
          <mxGeometry x="10" y="55" width="420" height="30" as="geometry" />
        </mxCell>
        <mxCell id="svqljPXg2CXVWNn9yPOQ-78" value="TypeID (INT, Foreign Key referencing Bus Types Table)" style="text;html=1;align=center;verticalAlign=middle;resizable=0;points=[];autosize=1;strokeColor=none;fillColor=none;fontStyle=1;fontSize=14;rotation=0;" parent="svqljPXg2CXVWNn9yPOQ-75" vertex="1">
          <mxGeometry x="35" y="85" width="370" height="30" as="geometry" />
        </mxCell>
        <mxCell id="svqljPXg2CXVWNn9yPOQ-79" value="&lt;span style=&quot;font-size: 14px;&quot;&gt;&lt;b&gt;BusNumber (VARCHAR)&lt;/b&gt;&lt;/span&gt;" style="text;html=1;align=center;verticalAlign=middle;resizable=0;points=[];autosize=1;strokeColor=none;fillColor=none;rotation=0;" parent="svqljPXg2CXVWNn9yPOQ-75" vertex="1">
          <mxGeometry x="120" y="115" width="190" height="30" as="geometry" />
        </mxCell>
        <mxCell id="svqljPXg2CXVWNn9yPOQ-80" value="&lt;span style=&quot;font-size: 14px;&quot;&gt;&lt;b&gt;Capacity (INT)&lt;/b&gt;&lt;/span&gt;" style="text;html=1;align=center;verticalAlign=middle;resizable=0;points=[];autosize=1;strokeColor=none;fillColor=none;" parent="svqljPXg2CXVWNn9yPOQ-75" vertex="1">
          <mxGeometry x="160" y="140" width="120" height="30" as="geometry" />
        </mxCell>
        <mxCell id="svqljPXg2CXVWNn9yPOQ-82" value="&lt;span style=&quot;font-size: 14px;&quot;&gt;&lt;b&gt;ManufactureYear (YEAR)&lt;/b&gt;&lt;/span&gt;" style="text;html=1;align=center;verticalAlign=middle;resizable=0;points=[];autosize=1;strokeColor=none;fillColor=none;" parent="svqljPXg2CXVWNn9yPOQ-75" vertex="1">
          <mxGeometry x="125" y="200" width="190" height="30" as="geometry" />
        </mxCell>
        <mxCell id="svqljPXg2CXVWNn9yPOQ-81" value="&lt;span style=&quot;font-size: 14px;&quot;&gt;&lt;b&gt;RegistrationNumber (VARCHAR)&lt;/b&gt;&lt;/span&gt;" style="text;html=1;align=center;verticalAlign=middle;resizable=0;points=[];autosize=1;strokeColor=none;fillColor=none;" parent="svqljPXg2CXVWNn9yPOQ-75" vertex="1">
          <mxGeometry x="100" y="170" width="240" height="30" as="geometry" />
        </mxCell>
        <mxCell id="svqljPXg2CXVWNn9yPOQ-86" value="&lt;h1&gt;5. Routes Table:&lt;/h1&gt;" style="swimlane;whiteSpace=wrap;html=1;fillColor=#f8cecc;strokeColor=#b85450;rotation=0;" parent="1" vertex="1">
          <mxGeometry x="1840" y="-310" width="270" height="220" as="geometry" />
        </mxCell>
        <mxCell id="svqljPXg2CXVWNn9yPOQ-87" value="RouteID (INT, Primary Key)" style="text;html=1;align=center;verticalAlign=middle;resizable=0;points=[];autosize=1;strokeColor=none;fillColor=none;fontStyle=1;fontSize=14;rotation=0;" parent="svqljPXg2CXVWNn9yPOQ-86" vertex="1">
          <mxGeometry x="50" y="30" width="190" height="30" as="geometry" />
        </mxCell>
        <mxCell id="svqljPXg2CXVWNn9yPOQ-88" value="Source (VARCHAR)" style="text;html=1;align=center;verticalAlign=middle;resizable=0;points=[];autosize=1;strokeColor=none;fillColor=none;fontStyle=1;fontSize=14;rotation=0;" parent="svqljPXg2CXVWNn9yPOQ-86" vertex="1">
          <mxGeometry x="65" y="60" width="150" height="30" as="geometry" />
        </mxCell>
        <mxCell id="svqljPXg2CXVWNn9yPOQ-90" value="&lt;span style=&quot;font-size: 14px;&quot;&gt;&lt;b&gt;Destination (VARCHAR)&lt;/b&gt;&lt;/span&gt;" style="text;html=1;align=center;verticalAlign=middle;resizable=0;points=[];autosize=1;strokeColor=none;fillColor=none;rotation=0;" parent="svqljPXg2CXVWNn9yPOQ-86" vertex="1">
          <mxGeometry x="50" y="85" width="180" height="30" as="geometry" />
        </mxCell>
        <mxCell id="svqljPXg2CXVWNn9yPOQ-91" value="&lt;span style=&quot;font-size: 14px;&quot;&gt;&lt;b&gt;Distance (FLOAT)&lt;/b&gt;&lt;/span&gt;" style="text;html=1;align=center;verticalAlign=middle;resizable=0;points=[];autosize=1;strokeColor=none;fillColor=none;" parent="svqljPXg2CXVWNn9yPOQ-86" vertex="1">
          <mxGeometry x="75" y="115" width="140" height="30" as="geometry" />
        </mxCell>
        <mxCell id="svqljPXg2CXVWNn9yPOQ-92" value="&lt;span style=&quot;font-size: 14px;&quot;&gt;&lt;b&gt;Fare (DECIMAL)&lt;/b&gt;&lt;/span&gt;" style="text;html=1;align=center;verticalAlign=middle;resizable=0;points=[];autosize=1;strokeColor=none;fillColor=none;" parent="svqljPXg2CXVWNn9yPOQ-86" vertex="1">
          <mxGeometry x="75" y="175" width="130" height="30" as="geometry" />
        </mxCell>
        <mxCell id="svqljPXg2CXVWNn9yPOQ-93" value="&lt;span style=&quot;font-size: 14px;&quot;&gt;&lt;b&gt;Duration (TIME)&lt;/b&gt;&lt;/span&gt;" style="text;html=1;align=center;verticalAlign=middle;resizable=0;points=[];autosize=1;strokeColor=none;fillColor=none;" parent="svqljPXg2CXVWNn9yPOQ-86" vertex="1">
          <mxGeometry x="80" y="145" width="130" height="30" as="geometry" />
        </mxCell>
        <mxCell id="svqljPXg2CXVWNn9yPOQ-94" value="&lt;h1&gt;6. Stops Table:&lt;/h1&gt;" style="swimlane;whiteSpace=wrap;html=1;fillColor=#f8cecc;strokeColor=#b85450;rotation=0;" parent="1" vertex="1">
          <mxGeometry x="1920" y="130" width="230" height="160" as="geometry" />
        </mxCell>
        <mxCell id="svqljPXg2CXVWNn9yPOQ-95" value="StopID (INT, Primary Key)" style="text;html=1;align=center;verticalAlign=middle;resizable=0;points=[];autosize=1;strokeColor=none;fillColor=none;fontStyle=1;fontSize=14;rotation=0;" parent="svqljPXg2CXVWNn9yPOQ-94" vertex="1">
          <mxGeometry x="40" y="30" width="180" height="30" as="geometry" />
        </mxCell>
        <mxCell id="svqljPXg2CXVWNn9yPOQ-96" value="StopName (VARCHAR)" style="text;html=1;align=center;verticalAlign=middle;resizable=0;points=[];autosize=1;strokeColor=none;fillColor=none;fontStyle=1;fontSize=14;rotation=0;" parent="svqljPXg2CXVWNn9yPOQ-94" vertex="1">
          <mxGeometry x="40" y="55" width="170" height="30" as="geometry" />
        </mxCell>
        <mxCell id="svqljPXg2CXVWNn9yPOQ-97" value="&lt;span style=&quot;font-size: 14px;&quot;&gt;&lt;b&gt;Latitude (FLOAT)&lt;/b&gt;&lt;/span&gt;" style="text;html=1;align=center;verticalAlign=middle;resizable=0;points=[];autosize=1;strokeColor=none;fillColor=none;rotation=0;" parent="svqljPXg2CXVWNn9yPOQ-94" vertex="1">
          <mxGeometry x="45" y="85" width="140" height="30" as="geometry" />
        </mxCell>
        <mxCell id="svqljPXg2CXVWNn9yPOQ-98" value="&lt;span style=&quot;font-size: 14px;&quot;&gt;&lt;b&gt;Longitude (FLOAT)&lt;/b&gt;&lt;/span&gt;" style="text;html=1;align=center;verticalAlign=middle;resizable=0;points=[];autosize=1;strokeColor=none;fillColor=none;" parent="svqljPXg2CXVWNn9yPOQ-94" vertex="1">
          <mxGeometry x="55" y="115" width="150" height="30" as="geometry" />
        </mxCell>
        <mxCell id="svqljPXg2CXVWNn9yPOQ-107" value="&lt;h1&gt;7. BusStops Table (Mapping Table):&lt;/h1&gt;" style="swimlane;whiteSpace=wrap;html=1;fillColor=#f8cecc;strokeColor=#b85450;rotation=0;" parent="1" vertex="1">
          <mxGeometry x="1810" y="470" width="440" height="180" as="geometry" />
        </mxCell>
        <mxCell id="svqljPXg2CXVWNn9yPOQ-108" value="BusStopID (INT, Primary Key)" style="text;html=1;align=center;verticalAlign=middle;resizable=0;points=[];autosize=1;strokeColor=none;fillColor=none;fontStyle=1;fontSize=14;rotation=0;" parent="svqljPXg2CXVWNn9yPOQ-107" vertex="1">
          <mxGeometry x="120" y="30" width="210" height="30" as="geometry" />
        </mxCell>
        <mxCell id="svqljPXg2CXVWNn9yPOQ-109" value="BusID (INT, Foreign Key referencing Buses Table)" style="text;html=1;align=center;verticalAlign=middle;resizable=0;points=[];autosize=1;strokeColor=none;fillColor=none;fontStyle=1;fontSize=14;rotation=0;" parent="svqljPXg2CXVWNn9yPOQ-107" vertex="1">
          <mxGeometry x="70" y="60" width="330" height="30" as="geometry" />
        </mxCell>
        <mxCell id="svqljPXg2CXVWNn9yPOQ-110" value="&lt;span style=&quot;font-size: 14px;&quot;&gt;&lt;b&gt;StopID (INT, Foreign Key referencing Stops Table)&lt;/b&gt;&lt;/span&gt;" style="text;html=1;align=center;verticalAlign=middle;resizable=0;points=[];autosize=1;strokeColor=none;fillColor=none;rotation=0;" parent="svqljPXg2CXVWNn9yPOQ-107" vertex="1">
          <mxGeometry x="60" y="90" width="350" height="30" as="geometry" />
        </mxCell>
        <mxCell id="svqljPXg2CXVWNn9yPOQ-111" value="&lt;span style=&quot;font-size: 14px;&quot;&gt;&lt;b&gt;ArrivalTime (TIME)&lt;/b&gt;&lt;/span&gt;" style="text;html=1;align=center;verticalAlign=middle;resizable=0;points=[];autosize=1;strokeColor=none;fillColor=none;" parent="svqljPXg2CXVWNn9yPOQ-107" vertex="1">
          <mxGeometry x="140" y="115" width="150" height="30" as="geometry" />
        </mxCell>
        <mxCell id="svqljPXg2CXVWNn9yPOQ-113" value="&lt;span style=&quot;font-size: 14px;&quot;&gt;&lt;b&gt;DepartureTime (TIME)&lt;/b&gt;&lt;/span&gt;" style="text;html=1;align=center;verticalAlign=middle;resizable=0;points=[];autosize=1;strokeColor=none;fillColor=none;" parent="svqljPXg2CXVWNn9yPOQ-107" vertex="1">
          <mxGeometry x="150" y="145" width="170" height="30" as="geometry" />
        </mxCell>
        <mxCell id="BqI_jp8ccUt9a7TALAK3-1" value="&lt;h1&gt;8. Bookings Table:&lt;/h1&gt;" style="swimlane;whiteSpace=wrap;html=1;fillColor=#f8cecc;strokeColor=#b85450;rotation=0;" vertex="1" parent="1">
          <mxGeometry x="1210" y="20" width="440" height="360" as="geometry" />
        </mxCell>
        <mxCell id="BqI_jp8ccUt9a7TALAK3-2" value="BookingID (INT, Primary Key)" style="text;html=1;align=center;verticalAlign=middle;resizable=0;points=[];autosize=1;strokeColor=none;fillColor=none;fontStyle=1;fontSize=14;rotation=0;" vertex="1" parent="BqI_jp8ccUt9a7TALAK3-1">
          <mxGeometry x="115" y="30" width="210" height="30" as="geometry" />
        </mxCell>
        <mxCell id="BqI_jp8ccUt9a7TALAK3-3" value="UserID (INT, Foreign Key referencing Users Table)" style="text;html=1;align=center;verticalAlign=middle;resizable=0;points=[];autosize=1;strokeColor=none;fillColor=none;fontStyle=1;fontSize=14;rotation=0;" vertex="1" parent="BqI_jp8ccUt9a7TALAK3-1">
          <mxGeometry x="50" y="55" width="340" height="30" as="geometry" />
        </mxCell>
        <mxCell id="BqI_jp8ccUt9a7TALAK3-4" value="BusID (INT, Foreign Key referencing Buses Table)" style="text;html=1;align=center;verticalAlign=middle;resizable=0;points=[];autosize=1;strokeColor=none;fillColor=none;fontStyle=1;fontSize=14;rotation=0;" vertex="1" parent="BqI_jp8ccUt9a7TALAK3-1">
          <mxGeometry x="55" y="85" width="330" height="30" as="geometry" />
        </mxCell>
        <mxCell id="BqI_jp8ccUt9a7TALAK3-5" value="&lt;span style=&quot;font-size: 14px;&quot;&gt;&lt;b&gt;RouteID (INT, Foreign Key referencing Routes Table)&lt;/b&gt;&lt;/span&gt;" style="text;html=1;align=center;verticalAlign=middle;resizable=0;points=[];autosize=1;strokeColor=none;fillColor=none;rotation=0;" vertex="1" parent="BqI_jp8ccUt9a7TALAK3-1">
          <mxGeometry x="30" y="115" width="370" height="30" as="geometry" />
        </mxCell>
        <mxCell id="BqI_jp8ccUt9a7TALAK3-6" value="&lt;span style=&quot;font-size: 14px;&quot;&gt;&lt;b&gt;SourceStopID (INT, Foreign Key referencing Stops Table)&lt;/b&gt;&lt;/span&gt;" style="text;html=1;align=center;verticalAlign=middle;resizable=0;points=[];autosize=1;strokeColor=none;fillColor=none;" vertex="1" parent="BqI_jp8ccUt9a7TALAK3-1">
          <mxGeometry x="20" y="140" width="400" height="30" as="geometry" />
        </mxCell>
        <mxCell id="BqI_jp8ccUt9a7TALAK3-7" value="&lt;span style=&quot;font-size: 14px;&quot;&gt;&lt;b&gt;DepartureDateTime (DATETIME)&lt;/b&gt;&lt;/span&gt;" style="text;html=1;align=center;verticalAlign=middle;resizable=0;points=[];autosize=1;strokeColor=none;fillColor=none;" vertex="1" parent="BqI_jp8ccUt9a7TALAK3-1">
          <mxGeometry x="100" y="200" width="240" height="30" as="geometry" />
        </mxCell>
        <mxCell id="BqI_jp8ccUt9a7TALAK3-8" value="&lt;span style=&quot;font-size: 14px;&quot;&gt;&lt;b&gt;DestinationStopID (INT, Foreign Key referencing Stops Table)&lt;/b&gt;&lt;/span&gt;" style="text;html=1;align=center;verticalAlign=middle;resizable=0;points=[];autosize=1;strokeColor=none;fillColor=none;" vertex="1" parent="BqI_jp8ccUt9a7TALAK3-1">
          <mxGeometry x="5" y="170" width="430" height="30" as="geometry" />
        </mxCell>
        <mxCell id="BqI_jp8ccUt9a7TALAK3-9" value="&lt;span style=&quot;font-size: 14px;&quot;&gt;&lt;b&gt;ArrivalDateTime (DATETIME)&lt;/b&gt;&lt;/span&gt;" style="text;html=1;align=center;verticalAlign=middle;resizable=0;points=[];autosize=1;strokeColor=none;fillColor=none;" vertex="1" parent="BqI_jp8ccUt9a7TALAK3-1">
          <mxGeometry x="115" y="230" width="210" height="30" as="geometry" />
        </mxCell>
        <mxCell id="BqI_jp8ccUt9a7TALAK3-10" value="&lt;span style=&quot;font-size: 14px;&quot;&gt;&lt;b&gt;SeatNumber (VARCHAR)&lt;/b&gt;&lt;/span&gt;" style="text;html=1;align=center;verticalAlign=middle;resizable=0;points=[];autosize=1;strokeColor=none;fillColor=none;" vertex="1" parent="BqI_jp8ccUt9a7TALAK3-1">
          <mxGeometry x="140" y="260" width="190" height="30" as="geometry" />
        </mxCell>
        <mxCell id="BqI_jp8ccUt9a7TALAK3-11" value="&lt;span style=&quot;font-size: 14px;&quot;&gt;&lt;b&gt;BookingDate (DATE)&lt;/b&gt;&lt;/span&gt;" style="text;html=1;align=center;verticalAlign=middle;resizable=0;points=[];autosize=1;strokeColor=none;fillColor=none;" vertex="1" parent="BqI_jp8ccUt9a7TALAK3-1">
          <mxGeometry x="155" y="290" width="160" height="30" as="geometry" />
        </mxCell>
        <mxCell id="BqI_jp8ccUt9a7TALAK3-12" value="&lt;span style=&quot;font-size: 14px;&quot;&gt;&lt;b&gt;Status (VARCHAR)&lt;/b&gt;&lt;/span&gt;" style="text;html=1;align=center;verticalAlign=middle;resizable=0;points=[];autosize=1;strokeColor=none;fillColor=none;" vertex="1" parent="BqI_jp8ccUt9a7TALAK3-1">
          <mxGeometry x="145" y="320" width="150" height="30" as="geometry" />
        </mxCell>
        <mxCell id="BqI_jp8ccUt9a7TALAK3-14" value="&lt;h1&gt;9. Payments Table:&lt;/h1&gt;" style="swimlane;whiteSpace=wrap;html=1;fillColor=#f8cecc;strokeColor=#b85450;rotation=0;" vertex="1" parent="1">
          <mxGeometry x="1230" y="-690" width="400" height="180" as="geometry" />
        </mxCell>
        <mxCell id="BqI_jp8ccUt9a7TALAK3-15" value="PaymentID (INT, Primary Key)" style="text;html=1;align=center;verticalAlign=middle;resizable=0;points=[];autosize=1;strokeColor=none;fillColor=none;fontStyle=1;fontSize=14;rotation=0;" vertex="1" parent="BqI_jp8ccUt9a7TALAK3-14">
          <mxGeometry x="95" y="30" width="210" height="30" as="geometry" />
        </mxCell>
        <mxCell id="BqI_jp8ccUt9a7TALAK3-16" value="BookingID (INT, Foreign Key referencing Bookings Table)" style="text;html=1;align=center;verticalAlign=middle;resizable=0;points=[];autosize=1;strokeColor=none;fillColor=none;fontStyle=1;fontSize=14;rotation=0;" vertex="1" parent="BqI_jp8ccUt9a7TALAK3-14">
          <mxGeometry x="10" y="55" width="380" height="30" as="geometry" />
        </mxCell>
        <mxCell id="BqI_jp8ccUt9a7TALAK3-17" value="Amount (DECIMAL)" style="text;html=1;align=center;verticalAlign=middle;resizable=0;points=[];autosize=1;strokeColor=none;fillColor=none;fontStyle=1;fontSize=14;rotation=0;" vertex="1" parent="BqI_jp8ccUt9a7TALAK3-14">
          <mxGeometry x="125" y="85" width="150" height="30" as="geometry" />
        </mxCell>
        <mxCell id="BqI_jp8ccUt9a7TALAK3-18" value="&lt;span style=&quot;font-size: 14px;&quot;&gt;&lt;b&gt;PaymentDate (DATETIME)&lt;/b&gt;&lt;/span&gt;" style="text;html=1;align=center;verticalAlign=middle;resizable=0;points=[];autosize=1;strokeColor=none;fillColor=none;rotation=0;" vertex="1" parent="BqI_jp8ccUt9a7TALAK3-14">
          <mxGeometry x="115" y="115" width="200" height="30" as="geometry" />
        </mxCell>
        <mxCell id="BqI_jp8ccUt9a7TALAK3-19" value="&lt;span style=&quot;font-size: 14px;&quot;&gt;&lt;b&gt;PaymentStatus (VARCHAR)&lt;/b&gt;&lt;/span&gt;" style="text;html=1;align=center;verticalAlign=middle;resizable=0;points=[];autosize=1;strokeColor=none;fillColor=none;" vertex="1" parent="BqI_jp8ccUt9a7TALAK3-14">
          <mxGeometry x="115" y="140" width="210" height="30" as="geometry" />
        </mxCell>
        <mxCell id="BqI_jp8ccUt9a7TALAK3-36" value="&lt;h1&gt;10. Reviews Table:&lt;/h1&gt;" style="swimlane;whiteSpace=wrap;html=1;fillColor=#f8cecc;strokeColor=#b85450;rotation=0;" vertex="1" parent="1">
          <mxGeometry x="350" y="340" width="380" height="210" as="geometry" />
        </mxCell>
        <mxCell id="BqI_jp8ccUt9a7TALAK3-37" value="ReviewID (INT, Primary Key)" style="text;html=1;align=center;verticalAlign=middle;resizable=0;points=[];autosize=1;strokeColor=none;fillColor=none;fontStyle=1;fontSize=14;rotation=0;" vertex="1" parent="BqI_jp8ccUt9a7TALAK3-36">
          <mxGeometry x="90" y="30" width="200" height="30" as="geometry" />
        </mxCell>
        <mxCell id="BqI_jp8ccUt9a7TALAK3-38" value="UserID (INT, Foreign Key referencing Users Table)" style="text;html=1;align=center;verticalAlign=middle;resizable=0;points=[];autosize=1;strokeColor=none;fillColor=none;fontStyle=1;fontSize=14;rotation=0;" vertex="1" parent="BqI_jp8ccUt9a7TALAK3-36">
          <mxGeometry x="20" y="60" width="340" height="30" as="geometry" />
        </mxCell>
        <mxCell id="BqI_jp8ccUt9a7TALAK3-39" value="BusID (INT, Foreign Key referencing Buses Table)" style="text;html=1;align=center;verticalAlign=middle;resizable=0;points=[];autosize=1;strokeColor=none;fillColor=none;fontStyle=1;fontSize=14;rotation=0;" vertex="1" parent="BqI_jp8ccUt9a7TALAK3-36">
          <mxGeometry x="25" y="90" width="330" height="30" as="geometry" />
        </mxCell>
        <mxCell id="BqI_jp8ccUt9a7TALAK3-40" value="&lt;span style=&quot;font-size: 14px;&quot;&gt;&lt;b&gt;Rating (INT)&lt;/b&gt;&lt;/span&gt;" style="text;html=1;align=center;verticalAlign=middle;resizable=0;points=[];autosize=1;strokeColor=none;fillColor=none;rotation=0;" vertex="1" parent="BqI_jp8ccUt9a7TALAK3-36">
          <mxGeometry x="145" y="115" width="100" height="30" as="geometry" />
        </mxCell>
        <mxCell id="BqI_jp8ccUt9a7TALAK3-41" value="&lt;span style=&quot;font-size: 14px;&quot;&gt;&lt;b&gt;ReviewText (TEXT)&lt;/b&gt;&lt;/span&gt;" style="text;html=1;align=center;verticalAlign=middle;resizable=0;points=[];autosize=1;strokeColor=none;fillColor=none;" vertex="1" parent="BqI_jp8ccUt9a7TALAK3-36">
          <mxGeometry x="130" y="145" width="150" height="30" as="geometry" />
        </mxCell>
        <mxCell id="BqI_jp8ccUt9a7TALAK3-43" value="&lt;span style=&quot;font-size: 14px;&quot;&gt;&lt;b&gt;Date (DATE)&lt;/b&gt;&lt;/span&gt;" style="text;html=1;align=center;verticalAlign=middle;resizable=0;points=[];autosize=1;strokeColor=none;fillColor=none;" vertex="1" parent="BqI_jp8ccUt9a7TALAK3-36">
          <mxGeometry x="155" y="175" width="100" height="30" as="geometry" />
        </mxCell>
        <mxCell id="BqI_jp8ccUt9a7TALAK3-48" value="&lt;h1&gt;11. Promotions Table:&lt;/h1&gt;" style="swimlane;whiteSpace=wrap;html=1;fillColor=#f8cecc;strokeColor=#b85450;rotation=0;" vertex="1" parent="1">
          <mxGeometry x="870" y="1650" width="310" height="210" as="geometry" />
        </mxCell>
        <mxCell id="BqI_jp8ccUt9a7TALAK3-49" value="PromotionID (INT, Primary Key)" style="text;html=1;align=center;verticalAlign=middle;resizable=0;points=[];autosize=1;strokeColor=none;fillColor=none;fontStyle=1;fontSize=14;rotation=0;" vertex="1" parent="BqI_jp8ccUt9a7TALAK3-48">
          <mxGeometry x="45" y="30" width="220" height="30" as="geometry" />
        </mxCell>
        <mxCell id="BqI_jp8ccUt9a7TALAK3-50" value="Code (VARCHAR)" style="text;html=1;align=center;verticalAlign=middle;resizable=0;points=[];autosize=1;strokeColor=none;fillColor=none;fontStyle=1;fontSize=14;rotation=0;" vertex="1" parent="BqI_jp8ccUt9a7TALAK3-48">
          <mxGeometry x="85" y="60" width="140" height="30" as="geometry" />
        </mxCell>
        <mxCell id="BqI_jp8ccUt9a7TALAK3-51" value="Description (TEXT)" style="text;html=1;align=center;verticalAlign=middle;resizable=0;points=[];autosize=1;strokeColor=none;fillColor=none;fontStyle=1;fontSize=14;rotation=0;" vertex="1" parent="BqI_jp8ccUt9a7TALAK3-48">
          <mxGeometry x="100" y="90" width="140" height="30" as="geometry" />
        </mxCell>
        <mxCell id="BqI_jp8ccUt9a7TALAK3-52" value="&lt;span style=&quot;font-size: 14px;&quot;&gt;&lt;b&gt;Discount (DECIMAL)&lt;/b&gt;&lt;/span&gt;" style="text;html=1;align=center;verticalAlign=middle;resizable=0;points=[];autosize=1;strokeColor=none;fillColor=none;rotation=0;" vertex="1" parent="BqI_jp8ccUt9a7TALAK3-48">
          <mxGeometry x="75" y="120" width="160" height="30" as="geometry" />
        </mxCell>
        <mxCell id="BqI_jp8ccUt9a7TALAK3-53" value="&lt;span style=&quot;font-size: 14px;&quot;&gt;&lt;b&gt;ValidFrom (DATE)&lt;/b&gt;&lt;/span&gt;" style="text;html=1;align=center;verticalAlign=middle;resizable=0;points=[];autosize=1;strokeColor=none;fillColor=none;" vertex="1" parent="BqI_jp8ccUt9a7TALAK3-48">
          <mxGeometry x="85" y="150" width="140" height="30" as="geometry" />
        </mxCell>
        <mxCell id="BqI_jp8ccUt9a7TALAK3-54" value="&lt;span style=&quot;font-size: 14px;&quot;&gt;&lt;b&gt;ValidTo (DATE)&lt;/b&gt;&lt;/span&gt;" style="text;html=1;align=center;verticalAlign=middle;resizable=0;points=[];autosize=1;strokeColor=none;fillColor=none;" vertex="1" parent="BqI_jp8ccUt9a7TALAK3-48">
          <mxGeometry x="95" y="180" width="120" height="30" as="geometry" />
        </mxCell>
        <mxCell id="BqI_jp8ccUt9a7TALAK3-55" value="&lt;h1&gt;12. Notifications Table:&lt;/h1&gt;" style="swimlane;whiteSpace=wrap;html=1;fillColor=#f8cecc;strokeColor=#b85450;rotation=0;" vertex="1" parent="1">
          <mxGeometry x="290" y="-660" width="350" height="190" as="geometry" />
        </mxCell>
        <mxCell id="BqI_jp8ccUt9a7TALAK3-56" value="NotificationID (INT, Primary Key)" style="text;html=1;align=center;verticalAlign=middle;resizable=0;points=[];autosize=1;strokeColor=none;fillColor=none;fontStyle=1;fontSize=14;rotation=0;" vertex="1" parent="BqI_jp8ccUt9a7TALAK3-55">
          <mxGeometry x="60" y="30" width="220" height="30" as="geometry" />
        </mxCell>
        <mxCell id="BqI_jp8ccUt9a7TALAK3-57" value="UserID (INT, Foreign Key referencing Users Table)" style="text;html=1;align=center;verticalAlign=middle;resizable=0;points=[];autosize=1;strokeColor=none;fillColor=none;fontStyle=1;fontSize=14;rotation=0;" vertex="1" parent="BqI_jp8ccUt9a7TALAK3-55">
          <mxGeometry x="10" y="60" width="340" height="30" as="geometry" />
        </mxCell>
        <mxCell id="BqI_jp8ccUt9a7TALAK3-58" value="Message (TEXT)" style="text;html=1;align=center;verticalAlign=middle;resizable=0;points=[];autosize=1;strokeColor=none;fillColor=none;fontStyle=1;fontSize=14;rotation=0;" vertex="1" parent="BqI_jp8ccUt9a7TALAK3-55">
          <mxGeometry x="105" y="90" width="130" height="30" as="geometry" />
        </mxCell>
        <mxCell id="BqI_jp8ccUt9a7TALAK3-59" value="&lt;span style=&quot;font-size: 14px;&quot;&gt;&lt;b&gt;Date (DATETIME)&lt;/b&gt;&lt;/span&gt;" style="text;html=1;align=center;verticalAlign=middle;resizable=0;points=[];autosize=1;strokeColor=none;fillColor=none;rotation=0;" vertex="1" parent="BqI_jp8ccUt9a7TALAK3-55">
          <mxGeometry x="110" y="120" width="140" height="30" as="geometry" />
        </mxCell>
        <mxCell id="BqI_jp8ccUt9a7TALAK3-60" value="&lt;span style=&quot;font-size: 14px;&quot;&gt;&lt;b&gt;Status (VARCHAR)&lt;/b&gt;&lt;/span&gt;" style="text;html=1;align=center;verticalAlign=middle;resizable=0;points=[];autosize=1;strokeColor=none;fillColor=none;" vertex="1" parent="BqI_jp8ccUt9a7TALAK3-55">
          <mxGeometry x="105" y="160" width="150" height="30" as="geometry" />
        </mxCell>
        <mxCell id="BqI_jp8ccUt9a7TALAK3-62" value="&lt;h1&gt;13. Complaints Table:&lt;/h1&gt;" style="swimlane;whiteSpace=wrap;html=1;fillColor=#f8cecc;strokeColor=#b85450;rotation=0;" vertex="1" parent="1">
          <mxGeometry x="650" y="-1020" width="360" height="210" as="geometry" />
        </mxCell>
        <mxCell id="BqI_jp8ccUt9a7TALAK3-63" value="ComplaintID (INT, Primary Key)" style="text;html=1;align=center;verticalAlign=middle;resizable=0;points=[];autosize=1;strokeColor=none;fillColor=none;fontStyle=1;fontSize=14;rotation=0;" vertex="1" parent="BqI_jp8ccUt9a7TALAK3-62">
          <mxGeometry x="60" y="30" width="220" height="30" as="geometry" />
        </mxCell>
        <mxCell id="BqI_jp8ccUt9a7TALAK3-64" value="UserID (INT, Foreign Key referencing Users Table)" style="text;html=1;align=center;verticalAlign=middle;resizable=0;points=[];autosize=1;strokeColor=none;fillColor=none;fontStyle=1;fontSize=14;rotation=0;" vertex="1" parent="BqI_jp8ccUt9a7TALAK3-62">
          <mxGeometry x="10" y="60" width="340" height="30" as="geometry" />
        </mxCell>
        <mxCell id="BqI_jp8ccUt9a7TALAK3-65" value="Subject (VARCHAR)" style="text;html=1;align=center;verticalAlign=middle;resizable=0;points=[];autosize=1;strokeColor=none;fillColor=none;fontStyle=1;fontSize=14;rotation=0;" vertex="1" parent="BqI_jp8ccUt9a7TALAK3-62">
          <mxGeometry x="95" y="90" width="150" height="30" as="geometry" />
        </mxCell>
        <mxCell id="BqI_jp8ccUt9a7TALAK3-66" value="&lt;span style=&quot;font-size: 14px;&quot;&gt;&lt;b&gt;Description (TEXT)&lt;/b&gt;&lt;/span&gt;" style="text;html=1;align=center;verticalAlign=middle;resizable=0;points=[];autosize=1;strokeColor=none;fillColor=none;rotation=0;" vertex="1" parent="BqI_jp8ccUt9a7TALAK3-62">
          <mxGeometry x="105" y="120" width="150" height="30" as="geometry" />
        </mxCell>
        <mxCell id="BqI_jp8ccUt9a7TALAK3-67" value="&lt;span style=&quot;font-size: 14px;&quot;&gt;&lt;b&gt;Date (DATETIME)&lt;/b&gt;&lt;/span&gt;" style="text;html=1;align=center;verticalAlign=middle;resizable=0;points=[];autosize=1;strokeColor=none;fillColor=none;" vertex="1" parent="BqI_jp8ccUt9a7TALAK3-62">
          <mxGeometry x="105" y="150" width="140" height="30" as="geometry" />
        </mxCell>
        <mxCell id="BqI_jp8ccUt9a7TALAK3-68" value="&lt;span style=&quot;font-size: 14px;&quot;&gt;&lt;b&gt;Status (VARCHAR)&lt;/b&gt;&lt;/span&gt;" style="text;html=1;align=center;verticalAlign=middle;resizable=0;points=[];autosize=1;strokeColor=none;fillColor=none;" vertex="1" parent="BqI_jp8ccUt9a7TALAK3-62">
          <mxGeometry x="95" y="180" width="150" height="30" as="geometry" />
        </mxCell>
        <mxCell id="BqI_jp8ccUt9a7TALAK3-70" value="&lt;h1&gt;14. Feedback Table:&lt;/h1&gt;" style="swimlane;whiteSpace=wrap;html=1;fillColor=#f8cecc;strokeColor=#b85450;rotation=0;" vertex="1" parent="1">
          <mxGeometry x="300" y="-400" width="360" height="190" as="geometry" />
        </mxCell>
        <mxCell id="BqI_jp8ccUt9a7TALAK3-71" value="FeedbackID (INT, Primary Key)" style="text;html=1;align=center;verticalAlign=middle;resizable=0;points=[];autosize=1;strokeColor=none;fillColor=none;fontStyle=1;fontSize=14;rotation=0;" vertex="1" parent="BqI_jp8ccUt9a7TALAK3-70">
          <mxGeometry x="60" y="30" width="220" height="30" as="geometry" />
        </mxCell>
        <mxCell id="BqI_jp8ccUt9a7TALAK3-72" value="UserID (INT, Foreign Key referencing Users Table)" style="text;html=1;align=center;verticalAlign=middle;resizable=0;points=[];autosize=1;strokeColor=none;fillColor=none;fontStyle=1;fontSize=14;rotation=0;" vertex="1" parent="BqI_jp8ccUt9a7TALAK3-70">
          <mxGeometry x="20" y="60" width="340" height="30" as="geometry" />
        </mxCell>
        <mxCell id="BqI_jp8ccUt9a7TALAK3-73" value="Subject (VARCHAR)" style="text;html=1;align=center;verticalAlign=middle;resizable=0;points=[];autosize=1;strokeColor=none;fillColor=none;fontStyle=1;fontSize=14;rotation=0;" vertex="1" parent="BqI_jp8ccUt9a7TALAK3-70">
          <mxGeometry x="95" y="90" width="150" height="30" as="geometry" />
        </mxCell>
        <mxCell id="BqI_jp8ccUt9a7TALAK3-74" value="&lt;span style=&quot;font-size: 14px;&quot;&gt;&lt;b&gt;Message (TEXT)&lt;/b&gt;&lt;/span&gt;" style="text;html=1;align=center;verticalAlign=middle;resizable=0;points=[];autosize=1;strokeColor=none;fillColor=none;rotation=0;" vertex="1" parent="BqI_jp8ccUt9a7TALAK3-70">
          <mxGeometry x="105" y="120" width="130" height="30" as="geometry" />
        </mxCell>
        <mxCell id="BqI_jp8ccUt9a7TALAK3-75" value="&lt;span style=&quot;font-size: 14px;&quot;&gt;&lt;b&gt;Date (DATETIME)&lt;/b&gt;&lt;/span&gt;" style="text;html=1;align=center;verticalAlign=middle;resizable=0;points=[];autosize=1;strokeColor=none;fillColor=none;" vertex="1" parent="BqI_jp8ccUt9a7TALAK3-70">
          <mxGeometry x="105" y="150" width="140" height="30" as="geometry" />
        </mxCell>
        <mxCell id="BqI_jp8ccUt9a7TALAK3-88" value="" style="edgeStyle=segmentEdgeStyle;endArrow=classic;html=1;curved=0;rounded=0;endSize=8;startSize=8;sourcePerimeterSpacing=0;targetPerimeterSpacing=0;exitX=1.024;exitY=0.389;exitDx=0;exitDy=0;exitPerimeter=0;entryX=0;entryY=0.833;entryDx=0;entryDy=0;entryPerimeter=0;" edge="1" parent="1" source="svqljPXg2CXVWNn9yPOQ-56" target="svqljPXg2CXVWNn9yPOQ-77">
          <mxGeometry width="100" relative="1" as="geometry">
            <mxPoint x="980" y="810" as="sourcePoint" />
            <mxPoint x="1080" y="850" as="targetPoint" />
            <Array as="points">
              <mxPoint x="725" y="980" />
              <mxPoint x="1195" y="980" />
            </Array>
          </mxGeometry>
        </mxCell>
        <mxCell id="BqI_jp8ccUt9a7TALAK3-91" value="" style="edgeStyle=segmentEdgeStyle;endArrow=classic;html=1;curved=0;rounded=0;endSize=8;startSize=8;sourcePerimeterSpacing=0;targetPerimeterSpacing=0;entryX=-0.003;entryY=0.333;entryDx=0;entryDy=0;entryPerimeter=0;" edge="1" parent="1" source="svqljPXg2CXVWNn9yPOQ-78" target="svqljPXg2CXVWNn9yPOQ-68">
          <mxGeometry width="100" relative="1" as="geometry">
            <mxPoint x="1690" y="890" as="sourcePoint" />
            <mxPoint x="1840" y="790" as="targetPoint" />
            <Array as="points">
              <mxPoint x="1830" y="1010" />
              <mxPoint x="1830" y="760" />
            </Array>
          </mxGeometry>
        </mxCell>
        <mxCell id="BqI_jp8ccUt9a7TALAK3-95" value="" style="endArrow=none;html=1;rounded=0;" edge="1" parent="1">
          <mxGeometry width="50" height="50" relative="1" as="geometry">
            <mxPoint x="1670" y="960" as="sourcePoint" />
            <mxPoint x="1670" y="570" as="targetPoint" />
          </mxGeometry>
        </mxCell>
        <mxCell id="BqI_jp8ccUt9a7TALAK3-96" value="" style="endArrow=classic;html=1;rounded=0;entryX=1.038;entryY=0.529;entryDx=0;entryDy=0;entryPerimeter=0;" edge="1" parent="1" target="svqljPXg2CXVWNn9yPOQ-76">
          <mxGeometry width="50" height="50" relative="1" as="geometry">
            <mxPoint x="1670" y="956" as="sourcePoint" />
            <mxPoint x="1470" y="630" as="targetPoint" />
          </mxGeometry>
        </mxCell>
        <mxCell id="BqI_jp8ccUt9a7TALAK3-97" value="" style="edgeStyle=segmentEdgeStyle;endArrow=classic;html=1;curved=0;rounded=0;endSize=8;startSize=8;sourcePerimeterSpacing=0;targetPerimeterSpacing=0;" edge="1" parent="1" source="BqI_jp8ccUt9a7TALAK3-98" target="BqI_jp8ccUt9a7TALAK3-3">
          <mxGeometry width="100" relative="1" as="geometry">
            <mxPoint x="1060" y="-340" as="sourcePoint" />
            <mxPoint x="1160" y="-170" as="targetPoint" />
            <Array as="points">
              <mxPoint x="1110" y="-375" />
              <mxPoint x="1110" y="90" />
            </Array>
          </mxGeometry>
        </mxCell>
        <mxCell id="BqI_jp8ccUt9a7TALAK3-99" value="" style="edgeStyle=segmentEdgeStyle;endArrow=classic;html=1;curved=0;rounded=0;endSize=8;startSize=8;sourcePerimeterSpacing=0;targetPerimeterSpacing=0;" edge="1" parent="1">
          <mxGeometry width="100" relative="1" as="geometry">
            <mxPoint x="1120" y="120" as="sourcePoint" />
            <mxPoint x="1670" y="570" as="targetPoint" />
            <Array as="points">
              <mxPoint x="1120" y="290" />
              <mxPoint x="1120" y="560" />
              <mxPoint x="1670" y="560" />
            </Array>
          </mxGeometry>
        </mxCell>
        <mxCell id="BqI_jp8ccUt9a7TALAK3-100" value="" style="endArrow=none;html=1;rounded=0;" edge="1" parent="1" source="BqI_jp8ccUt9a7TALAK3-4">
          <mxGeometry width="50" height="50" relative="1" as="geometry">
            <mxPoint x="1340" y="380" as="sourcePoint" />
            <mxPoint x="1120" y="120" as="targetPoint" />
          </mxGeometry>
        </mxCell>
        <mxCell id="BqI_jp8ccUt9a7TALAK3-101" value="" style="edgeStyle=segmentEdgeStyle;endArrow=classic;html=1;curved=0;rounded=0;endSize=8;startSize=8;sourcePerimeterSpacing=0;targetPerimeterSpacing=0;entryX=0.009;entryY=0.556;entryDx=0;entryDy=0;entryPerimeter=0;" edge="1" parent="1" source="BqI_jp8ccUt9a7TALAK3-5" target="svqljPXg2CXVWNn9yPOQ-87">
          <mxGeometry width="100" relative="1" as="geometry">
            <mxPoint x="1660" y="-250" as="sourcePoint" />
            <mxPoint x="1760" y="-210" as="targetPoint" />
            <Array as="points">
              <mxPoint x="1710" y="150" />
              <mxPoint x="1710" y="-263" />
            </Array>
          </mxGeometry>
        </mxCell>
        <mxCell id="BqI_jp8ccUt9a7TALAK3-103" value="" style="endArrow=classic;html=1;rounded=0;" edge="1" parent="1" source="BqI_jp8ccUt9a7TALAK3-6" target="svqljPXg2CXVWNn9yPOQ-95">
          <mxGeometry width="50" height="50" relative="1" as="geometry">
            <mxPoint x="1420" y="240" as="sourcePoint" />
            <mxPoint x="1470" y="190" as="targetPoint" />
          </mxGeometry>
        </mxCell>
        <mxCell id="BqI_jp8ccUt9a7TALAK3-104" value="" style="endArrow=none;html=1;rounded=0;" edge="1" parent="1" source="BqI_jp8ccUt9a7TALAK3-8">
          <mxGeometry width="50" height="50" relative="1" as="geometry">
            <mxPoint x="1650" y="260" as="sourcePoint" />
            <mxPoint x="1700" y="210" as="targetPoint" />
          </mxGeometry>
        </mxCell>
        <mxCell id="BqI_jp8ccUt9a7TALAK3-105" value="" style="endArrow=none;html=1;rounded=0;" edge="1" parent="1">
          <mxGeometry width="50" height="50" relative="1" as="geometry">
            <mxPoint x="1700" y="170" as="sourcePoint" />
            <mxPoint x="1700" y="210" as="targetPoint" />
          </mxGeometry>
        </mxCell>
        <mxCell id="BqI_jp8ccUt9a7TALAK3-107" value="" style="edgeStyle=segmentEdgeStyle;endArrow=classic;html=1;curved=0;rounded=0;endSize=8;startSize=8;sourcePerimeterSpacing=0;targetPerimeterSpacing=0;" edge="1" parent="1" source="BqI_jp8ccUt9a7TALAK3-57">
          <mxGeometry width="100" relative="1" as="geometry">
            <mxPoint x="710" y="-620" as="sourcePoint" />
            <mxPoint x="790" y="-370" as="targetPoint" />
            <Array as="points" />
          </mxGeometry>
        </mxCell>
        <mxCell id="BqI_jp8ccUt9a7TALAK3-108" value="" style="edgeStyle=segmentEdgeStyle;endArrow=classic;html=1;curved=0;rounded=0;endSize=8;startSize=8;sourcePerimeterSpacing=0;targetPerimeterSpacing=0;" edge="1" parent="1" target="svqljPXg2CXVWNn9yPOQ-109">
          <mxGeometry width="100" relative="1" as="geometry">
            <mxPoint x="1670" y="960" as="sourcePoint" />
            <mxPoint x="1800" y="720" as="targetPoint" />
            <Array as="points">
              <mxPoint x="1750" y="960" />
              <mxPoint x="1750" y="550" />
            </Array>
          </mxGeometry>
        </mxCell>
        <mxCell id="BqI_jp8ccUt9a7TALAK3-109" value="" style="edgeStyle=segmentEdgeStyle;endArrow=classic;html=1;curved=0;rounded=0;endSize=8;startSize=8;sourcePerimeterSpacing=0;targetPerimeterSpacing=0;exitX=1.01;exitY=0.481;exitDx=0;exitDy=0;exitPerimeter=0;" edge="1" parent="1" source="svqljPXg2CXVWNn9yPOQ-95" target="svqljPXg2CXVWNn9yPOQ-110">
          <mxGeometry width="100" relative="1" as="geometry">
            <mxPoint x="2340" y="370" as="sourcePoint" />
            <mxPoint x="2250" y="580" as="targetPoint" />
            <Array as="points">
              <mxPoint x="2390" y="174" />
              <mxPoint x="2390" y="580" />
            </Array>
          </mxGeometry>
        </mxCell>
        <mxCell id="BqI_jp8ccUt9a7TALAK3-110" value="" style="edgeStyle=segmentEdgeStyle;endArrow=classic;html=1;curved=0;rounded=0;endSize=8;startSize=8;sourcePerimeterSpacing=0;targetPerimeterSpacing=0;exitX=0;exitY=0.167;exitDx=0;exitDy=0;exitPerimeter=0;" edge="1" parent="1" source="BqI_jp8ccUt9a7TALAK3-16">
          <mxGeometry width="100" relative="1" as="geometry">
            <mxPoint x="1110" y="-470" as="sourcePoint" />
            <mxPoint x="1320" y="70" as="targetPoint" />
            <Array as="points">
              <mxPoint x="1240" y="-620" />
              <mxPoint x="1160" y="-620" />
              <mxPoint x="1160" y="70" />
            </Array>
          </mxGeometry>
        </mxCell>
        <mxCell id="BqI_jp8ccUt9a7TALAK3-111" value="" style="edgeStyle=segmentEdgeStyle;endArrow=classic;html=1;curved=0;rounded=0;endSize=8;startSize=8;sourcePerimeterSpacing=0;targetPerimeterSpacing=0;entryX=-0.009;entryY=0.887;entryDx=0;entryDy=0;entryPerimeter=0;" edge="1" parent="1" source="BqI_jp8ccUt9a7TALAK3-38" target="BqI_jp8ccUt9a7TALAK3-98">
          <mxGeometry width="100" relative="1" as="geometry">
            <mxPoint x="720" y="130" as="sourcePoint" />
            <mxPoint x="830" y="-430" as="targetPoint" />
            <Array as="points">
              <mxPoint x="770" y="410" />
              <mxPoint x="770" y="-210" />
              <mxPoint x="820" y="-210" />
              <mxPoint x="820" y="-363" />
              <mxPoint x="830" y="-363" />
            </Array>
          </mxGeometry>
        </mxCell>
        <mxCell id="BqI_jp8ccUt9a7TALAK3-112" value="" style="edgeStyle=segmentEdgeStyle;endArrow=classic;html=1;curved=0;rounded=0;endSize=8;startSize=8;sourcePerimeterSpacing=0;targetPerimeterSpacing=0;" edge="1" parent="1" source="BqI_jp8ccUt9a7TALAK3-39" target="svqljPXg2CXVWNn9yPOQ-76">
          <mxGeometry width="100" relative="1" as="geometry">
            <mxPoint x="850" y="500" as="sourcePoint" />
            <mxPoint x="950" y="540" as="targetPoint" />
            <Array as="points">
              <mxPoint x="900" y="440" />
              <mxPoint x="900" y="955" />
            </Array>
          </mxGeometry>
        </mxCell>
        <mxCell id="BqI_jp8ccUt9a7TALAK3-114" value="" style="edgeStyle=segmentEdgeStyle;endArrow=classic;html=1;curved=0;rounded=0;endSize=8;startSize=8;sourcePerimeterSpacing=0;targetPerimeterSpacing=0;" edge="1" parent="1" source="BqI_jp8ccUt9a7TALAK3-64">
          <mxGeometry width="100" relative="1" as="geometry">
            <mxPoint x="1090" y="-950" as="sourcePoint" />
            <mxPoint x="1110" y="-320" as="targetPoint" />
            <Array as="points">
              <mxPoint x="1080" y="-945" />
              <mxPoint x="1080" y="-790" />
            </Array>
          </mxGeometry>
        </mxCell>
        <mxCell id="BqI_jp8ccUt9a7TALAK3-116" value="" style="edgeStyle=segmentEdgeStyle;endArrow=classic;html=1;curved=0;rounded=0;endSize=8;startSize=8;sourcePerimeterSpacing=0;targetPerimeterSpacing=0;entryX=-0.014;entryY=0.394;entryDx=0;entryDy=0;entryPerimeter=0;exitX=1.001;exitY=0.361;exitDx=0;exitDy=0;exitPerimeter=0;" edge="1" parent="1" source="BqI_jp8ccUt9a7TALAK3-72" target="BqI_jp8ccUt9a7TALAK3-98">
          <mxGeometry width="100" relative="1" as="geometry">
            <mxPoint x="680" y="-330" as="sourcePoint" />
            <mxPoint x="750" y="-370" as="targetPoint" />
            <Array as="points">
              <mxPoint x="700" y="-329" />
              <mxPoint x="700" y="-378" />
            </Array>
          </mxGeometry>
        </mxCell>
        <mxCell id="BqI_jp8ccUt9a7TALAK3-117" value="&lt;h1&gt;15.Passenger Table:&lt;/h1&gt;" style="swimlane;whiteSpace=wrap;html=1;fillColor=#f8cecc;strokeColor=#b85450;rotation=0;" vertex="1" parent="1">
          <mxGeometry x="1080" y="1320" width="270" height="160" as="geometry" />
        </mxCell>
        <mxCell id="BqI_jp8ccUt9a7TALAK3-118" value="Passenger ID(Primary key)" style="text;html=1;align=center;verticalAlign=middle;resizable=0;points=[];autosize=1;strokeColor=none;fillColor=none;fontStyle=1;fontSize=14;rotation=0;" vertex="1" parent="BqI_jp8ccUt9a7TALAK3-117">
          <mxGeometry x="40" y="30" width="190" height="30" as="geometry" />
        </mxCell>
        <mxCell id="BqI_jp8ccUt9a7TALAK3-119" value="Name" style="text;html=1;align=center;verticalAlign=middle;resizable=0;points=[];autosize=1;strokeColor=none;fillColor=none;fontStyle=1;fontSize=14;rotation=0;" vertex="1" parent="BqI_jp8ccUt9a7TALAK3-117">
          <mxGeometry x="100" y="60" width="60" height="30" as="geometry" />
        </mxCell>
        <mxCell id="BqI_jp8ccUt9a7TALAK3-120" value="Age" style="text;html=1;align=center;verticalAlign=middle;resizable=0;points=[];autosize=1;strokeColor=none;fillColor=none;fontStyle=1;fontSize=14;rotation=0;" vertex="1" parent="BqI_jp8ccUt9a7TALAK3-117">
          <mxGeometry x="110" y="90" width="50" height="30" as="geometry" />
        </mxCell>
        <mxCell id="BqI_jp8ccUt9a7TALAK3-121" value="&lt;span style=&quot;font-size: 14px;&quot;&gt;&lt;b&gt;Gender&lt;/b&gt;&lt;/span&gt;" style="text;html=1;align=center;verticalAlign=middle;resizable=0;points=[];autosize=1;strokeColor=none;fillColor=none;rotation=0;" vertex="1" parent="BqI_jp8ccUt9a7TALAK3-117">
          <mxGeometry x="110" y="120" width="70" height="30" as="geometry" />
        </mxCell>
      </root>
    </mxGraphModel>
  </diagram>
</mxfile>
